<svg version="1.1" xmlns="http://www.w3.org/2000/svg" xmlns:xlink="http://www.w3.org/1999/xlink" width="16" height="16" viewBox="0,0,16,16"><defs><clipPath id="clip-1"><path d="M0,16l0,-13.45691c0.06056,0.16061 0.12944,0.30984 0.19189,0.42227c0.0548,0.0822 0.11758,0.15878 0.18743,0.22864l1.61541,1.61541c-0.25649,0.2815 -0.16668,0.11235 -0.70722,0.87682c-0.53672,0.7706 -0.96894,1.72998 -1.1963,2.64518c-0.0517,0.41729 0.02264,1.07481 0.16713,1.4594c0.02781,0.05562 0.05905,0.10946 0.09355,0.1612c0.22664,0.27632 0.70239,0.64292 1.04038,0.80433c0.43018,0.0504 1.17601,-0.02456 1.60014,-0.19433c0.33944,-0.26316 0.71996,-0.7215 0.92326,-1.1372c0.16822,0.78204 0.57713,1.5764 1.06777,2.15869c0.76818,0.6923 1.95664,1.27649 2.96322,1.27649c1.03515,0 1.13402,-0.18126 1.67915,-0.41952l3.12683,3.12687c0.18729,0.14569 0.46935,0.31217 0.75815,0.43265zM0,0l1.18564,0c-0.2635,0.12829 -0.51536,0.31169 -0.73353,0.48075c-0.16706,0.20895 -0.33386,0.4411 -0.45211,0.68556zM16,0v13.4762c-0.05921,-0.16457 -0.12728,-0.31976 -0.1921,-0.44182c-0.05475,-0.08209 -0.11746,-0.15857 -0.18723,-0.22834l-2.06021,-2.06022c0.31779,0.04415 0.67181,0.0515 0.94923,0.01667c0.37196,-0.15634 0.85923,-0.49575 1.13847,-0.81055c0.03449,-0.05174 0.06573,-0.10558 0.09353,-0.1612c0.14445,-0.38445 0.21897,-1.04416 0.16673,-1.46164c-0.30969,-1.11819 -0.9018,-2.26914 -1.63757,-3.15748c-0.7304,-0.89413 -1.73058,-1.68954 -2.80599,-2.20889c-1.04566,-0.479 -2.30369,-0.78274 -3.46487,-0.78274c-0.77874,0 -1.63037,0.1265 -2.34326,0.32762c-0.08354,0.02457 -0.16394,0.05609 -0.24057,0.0939l-2.16884,-2.16884c-0.18757,-0.14591 -0.46958,-0.3123 -0.75822,-0.43268zM16,16h-1.07216c0.25057,-0.09727 0.49017,-0.23009 0.63942,-0.37934c0.14948,-0.14948 0.31396,-0.41463 0.43274,-0.69653zM8.1126,8.80606c-0.01405,0.02981 -0.02035,0.04972 -0.02258,0.06242c-0.00453,-0.00482 -0.01207,-0.00973 -0.02406,-0.01367c0.01511,-0.01651 0.03066,-0.03277 0.04664,-0.04875zM7.83852,8.6273c-0.00394,-0.01199 -0.00885,-0.01952 -0.01367,-0.02404c0.0127,-0.00223 0.03025,0.0089 0.01367,0.02404z" id="mask"></path></clipPath></defs><g fill="none" fill-rule="nonzero" stroke="none" stroke-width="1" stroke-linecap="butt" stroke-linejoin="miter" stroke-miterlimit="10" stroke-dasharray="" stroke-dashoffset="0" font-family="none" font-weight="none" font-size="none" text-anchor="none" style="mix-blend-mode: normal"><path d="M0,16v-16h16v16z" fill="none"></path><g id="icon" fill="#ffa23e"><path d="M1.49331,1.49334c0.07111,-0.10667 0.17778,-0.16 0.32,-0.16c0.14223,0 0.26667,0.05333 0.37334,0.16l5.54666,5.54666l6.82669,6.8267c0.0711,0.1066 0.1066,0.2311 0.1066,0.3733c0,0.1067 -0.0533,0.2133 -0.16,0.32c-0.0711,0.0711 -0.1777,0.1067 -0.32,0.1067c-0.1422,0 -0.2666,-0.0534 -0.3733,-0.16l-3.94665,-3.9467c-0.53334,0.5333 -1.17334,0.8 -1.92,0.8c-0.71111,0 -1.33334,-0.2667 -1.86667,-0.8c-0.49778,-0.5333 -0.74667,-1.15555 -0.74667,-1.86666c0,-0.74667 0.24889,-1.36889 0.74667,-1.86667l-1.17333,-1.22667c-0.60445,0.39111 -1.12,0.87111 -1.54667,1.44c-0.39111,0.56889 -0.67556,1.20889 -0.85333,1.92c-0.03556,0.14222 -0.12445,0.24889 -0.26667,0.32c-0.10667,0.07111 -0.23111,0.08889 -0.37333,0.05334c-0.10667,-0.03556 -0.19556,-0.10667 -0.26667,-0.21334c-0.07111,-0.14222 -0.08889,-0.28444 -0.05333,-0.42666c0.17777,-0.78223 0.49777,-1.49334 0.96,-2.13334c0.46222,-0.67555 1.01333,-1.24444 1.65333,-1.70666l-2.72,-2.72c-0.07111,-0.10667 -0.10667,-0.21334 -0.10667,-0.32c0,-0.14223 0.05334,-0.24889 0.16,-0.32zM6.82665,7.52c-0.32,0.32 -0.48,0.71111 -0.48,1.17334c0,0.42666 0.16,0.81777 0.48,1.17333c0.32,0.32003 0.71111,0.48003 1.17333,0.48003c0.46222,0 0.85333,-0.16 1.17333,-0.48003zM7.99998,3.68c0.99556,0 1.93778,0.21334 2.82662,0.64c0.9245,0.42667 1.6889,1.03111 2.2934,1.81334c0.64,0.74666 1.0844,1.6 1.3333,2.56c0.0356,0.14222 0.0178,0.28444 -0.0533,0.42666c-0.0711,0.10667 -0.1778,0.17778 -0.32,0.21334c-0.1067,0.03555 -0.2311,0.01777 -0.3734,-0.05334c-0.1066,-0.07111 -0.1777,-0.17778 -0.2133,-0.32c-0.32,-1.24444 -0.9955,-2.27555 -2.0267,-3.09333c-0.9955,-0.81778 -2.15106,-1.22667 -3.46662,-1.22667c-0.35556,0 -0.72889,0.05334 -1.12,0.16l-0.8,-0.85333c0.60444,-0.17778 1.24444,-0.26667 1.92,-0.26667zM8.10665,6.02667c0.71111,0.03556 1.29777,0.30222 1.76,0.8c0.49775,0.46222 0.76445,1.03111 0.79995,1.70667z"></path></g><path d="" fill="none"></path><g clip-path="url(#clip-1)" fill="none"></g></g></svg>