<svg version="1.1" xmlns="http://www.w3.org/2000/svg" xmlns:xlink="http://www.w3.org/1999/xlink" width="16" height="16" viewBox="0,0,16,16"><defs><clipPath id="clip-1"><path d="M0,16v-16h16v8.2555c-0.05828,-0.14502 -0.12219,-0.28168 -0.18753,-0.40254c-0.29071,-0.4271 -0.79451,-0.90152 -1.24167,-1.16128c-0.13601,-0.06539 -0.24812,-0.11017 -0.37293,-0.15605l-3.68497,-1.49225c-0.50663,-0.30472 -1.00883,-0.54338 -1.67958,-0.54338c-0.66334,0 -1.50699,0.36164 -2.04285,0.76111c-0.45099,0.48235 -0.8956,1.32065 -1.01464,1.97324c0.00305,0.63894 0.10946,1.08417 0.29083,1.56122l0,4.35372c-0.19677,0.47369 -0.32026,0.80193 -0.33102,1.46724c0.07112,0.41859 0.25422,0.93865 0.48708,1.38347zM16,16l-4.59007,0c0.08998,-0.15902 0.16798,-0.32471 0.24711,-0.50539l2.1155,-2.53859l1.25362,-1.0781c0.15381,-0.11995 0.28722,-0.23269 0.44268,-0.39379c0.19112,-0.25467 0.38331,-0.58955 0.53115,-0.94077z" id="mask" fill="none"></path></clipPath></defs><g fill="none" fill-rule="nonzero" stroke="none" stroke-width="1" stroke-linecap="butt" stroke-linejoin="miter" stroke-miterlimit="10" stroke-dasharray="" stroke-dashoffset="0" font-family="none" font-weight="none" font-size="none" text-anchor="none" style="mix-blend-mode: normal"><path d="M0,16v-16h16v16z" fill="none"></path><g id="icon" fill="#a4afbd"><path d="M14.76663,9.43333c0,0.37778 -0.13331,0.72222 -0.39994,1.03334c-0.26669,0.28889 -0.58894,0.45556 -0.96669,0.5c-0.13338,0.37777 -0.36669,0.68889 -0.7,0.93333c-0.31112,0.22223 -0.66667,0.33333 -1.06667,0.33333h-1.23334c-0.24444,0 -0.46666,0.06667 -0.66666,0.19998c-0.2,0.11113 -0.35556,0.27781 -0.46667,0.5c0.4,0.11113 0.7,0.33338 0.9,0.66669c0.2,0.33331 0.26667,0.7 0.2,1.1c-0.06667,0.4 -0.25556,0.72225 -0.56667,0.96669c-0.31111,0.24444 -0.66666,0.35556 -1.06666,0.33331c-0.4,-0.02225 -0.74444,-0.16669 -1.03334,-0.43331c-0.26666,-0.28894 -0.42222,-0.63338 -0.46666,-1.03338c-0.02222,-0.4 0.08889,-0.75556 0.33333,-1.06663c0.24444,-0.31112 0.56667,-0.51112 0.96667,-0.6v-3.80002c-0.4,-0.06667 -0.72222,-0.25556 -0.96667,-0.56667c-0.22223,-0.33333 -0.32223,-0.7 -0.3,-1.1c0.04444,-0.4 0.21111,-0.73333 0.5,-1c0.31111,-0.26667 0.66667,-0.4 1.06667,-0.4c0.4,0 0.74444,0.13333 1.03333,0.4c0.31111,0.26667 0.47777,0.6 0.5,1c0.04444,0.4 -0.05556,0.76667 -0.3,1.1c-0.22222,0.31111 -0.53333,0.5 -0.93333,0.56667v3.03333c0.35556,-0.33333 0.77778,-0.5 1.26666,-0.5h1.23334c0.24444,0 0.46666,-0.05556 0.66668,-0.16667c0.2,-0.13333 0.35556,-0.31111 0.46662,-0.53333c-0.28887,-0.08889 -0.5333,-0.23333 -0.7333,-0.43333c-0.2,-0.22222 -0.32223,-0.47778 -0.36667,-0.76667c-0.04444,-0.28889 -0.02222,-0.56667 0.06667,-0.83333c0.11111,-0.28889 0.28889,-0.52222 0.5333,-0.7c0.2445,-0.17778 0.51112,-0.27778 0.80006,-0.3c0.28888,-0.02223 0.56663,0.03333 0.83331,0.16666c0.26669,0.13334 0.47775,0.33334 0.63331,0.6c0.15556,0.24444 0.23331,0.51111 0.23331,0.8zM7.89999,7.56667c0,0.24444 0.08889,0.46666 0.26667,0.66666c0.17778,0.17778 0.4,0.26667 0.66667,0.26667c0.26666,0 0.48889,-0.08889 0.66666,-0.26667c0.17778,-0.2 0.26667,-0.42222 0.26667,-0.66666c0,-0.26667 -0.08889,-0.48889 -0.26667,-0.66667c-0.17778,-0.17778 -0.4,-0.26667 -0.66666,-0.26667c-0.26667,0 -0.48889,0.08889 -0.66667,0.26667c-0.17777,0.17777 -0.26667,0.4 -0.26667,0.66667zM9.76666,14.4c0,-0.24444 -0.08889,-0.45556 -0.26667,-0.63331c-0.17778,-0.2 -0.4,-0.3 -0.66666,-0.3c-0.26667,0 -0.48889,0.1 -0.66667,0.3c-0.17777,0.17775 -0.26667,0.4 -0.26667,0.66662c0,0.24444 0.08889,0.45556 0.26667,0.63338c0.17778,0.17775 0.4,0.26662 0.66667,0.26662c0.26666,0 0.48889,-0.08887 0.66666,-0.26662c0.17778,-0.17781 0.26667,-0.4 0.26667,-0.66669zM13.2,10.36667c0.24444,0 0.45556,-0.08889 0.63331,-0.26667c0.2,-0.2 0.3,-0.42222 0.3,-0.66667c0,-0.26666 -0.1,-0.48889 -0.3,-0.66666c-0.17775,-0.17778 -0.4,-0.26667 -0.66662,-0.26667c-0.2445,0 -0.45556,0.08889 -0.63337,0.26667c-0.17775,0.17777 -0.26669,0.4 -0.26669,0.66666c0,0.24444 0.08894,0.46667 0.26669,0.66667c0.17781,0.17778 0.4,0.26667 0.66669,0.26667z"></path></g><path d="" fill="none"></path><path d="M14.76663,9.43333l-0.39994,1.03334l-1.66669,1.43333l-2.33334,2.8l-0.56667,0.96669l-1.06666,0.33331l-1.03334,-0.43331l-0.46666,-1.03338l0.33333,-1.06663v-4.96669l-0.3,-1.1l0.5,-1l1.06667,-0.4l1.03333,0.4l4.03334,1.63333l0.63331,0.6l0.23331,0.8" fill="none"></path><g clip-path="url(#clip-1)"><g fill-opacity="0.9" fill="#738295"><path d="M3,2c-1.10457,0 -2,0.89543 -2,2v8c0,1.1046 0.89543,2 2,2h10c1.1046,0 2,-0.8954 2,-2v-6c0,-1.10457 -0.8954,-2 -2,-2h-4.58579c-0.1326,0 -0.25978,-0.05268 -0.35355,-0.14645l-1.41421,-1.41421c-0.28131,-0.28131 -0.66284,-0.43934 -1.06066,-0.43934z"></path></g></g></g></svg>